<svg xmlns="http://www.w3.org/2000/svg" width="29.749" height="29.802"><path d="M18.123 6.397a6.617 6.617 0 015.227 5.227m-5.227-10.52a11.91 11.91 0 0110.52 10.507m-1.323 10.56v3.97a2.647 2.647 0 01-2.887 2.648 26.189 26.189 0 01-11.421-4.063 25.805 25.805 0 01-7.94-7.94 26.189 26.189 0 01-4.06-11.474 2.647 2.647 0 012.633-2.885h3.97a2.647 2.647 0 012.647 2.277 16.992 16.992 0 00.926 3.719 2.647 2.647 0 01-.6 2.792l-1.681 1.681a21.174 21.174 0 007.94 7.94l1.686-1.681a2.647 2.647 0 012.792-.6 16.992 16.992 0 003.719.926 2.647 2.647 0 012.276 2.691z" fill="none" stroke="#000" stroke-linecap="round" stroke-linejoin="round" stroke-width="2"/></svg>
