<svg xmlns="http://www.w3.org/2000/svg" width="11.554" height="11.552"><path d="M5.778 2.814A2.962 2.962 0 108.74 5.775a2.957 2.957 0 00-2.962-2.961zm0 4.887a1.925 1.925 0 111.927-1.926 1.929 1.929 0 01-1.927 1.926zm3.774-5.008a.691.691 0 11-.691-.691.689.689 0 01.691.691zm1.962.7a3.419 3.419 0 00-.933-2.42A3.441 3.441 0 008.161.04c-.954-.054-3.812-.054-4.766 0a3.436 3.436 0 00-2.42.931 3.43 3.43 0 00-.933 2.42c-.054.954-.054 3.812 0 4.766a3.419 3.419 0 00.933 2.42 3.445 3.445 0 002.42.933c.954.054 3.812.054 4.766 0a3.419 3.419 0 002.42-.933 3.441 3.441 0 00.933-2.42c.054-.954.054-3.81 0-4.763zM10.282 9.18a1.949 1.949 0 01-1.1 1.1 12.73 12.73 0 01-3.4.232 12.83 12.83 0 01-3.4-.232 1.949 1.949 0 01-1.1-1.1 12.731 12.731 0 01-.232-3.405 12.83 12.83 0 01.225-3.405 1.949 1.949 0 011.1-1.1 12.73 12.73 0 013.4-.232 12.83 12.83 0 013.4.232 1.949 1.949 0 011.1 1.1 12.731 12.731 0 01.232 3.405 12.724 12.724 0 01-.226 3.406z"/></svg>
