<svg xmlns="http://www.w3.org/2000/svg" width="19.251" height="18.816"><path d="M18.251 13.589v2.531a1.667 1.667 0 01-.562 1.25 1.765 1.765 0 01-1.329.437 17.475 17.475 0 01-7.485-2.59 16.691 16.691 0 01-5.2-5.063 16.408 16.408 0 01-2.667-7.315 1.659 1.659 0 01.446-1.29A1.757 1.757 0 012.733 1h2.6a1.72 1.72 0 011.738 1.451 10.593 10.593 0 00.607 2.371 1.654 1.654 0 01-.39 1.78l-1.1 1.072a13.7 13.7 0 005.2 5.063l1.1-1.072a1.77 1.77 0 011.83-.38 11.392 11.392 0 002.437.591 1.7 1.7 0 011.492 1.713z" fill="none" stroke="#919191" stroke-linecap="round" stroke-linejoin="round" stroke-width="2"/></svg>
