<svg xmlns="http://www.w3.org/2000/svg" width="33.419" height="26.735"><path d="M13.368 17.545c0-.845.07-.456-4.441-9.478a2.508 2.508 0 00-4.484 0C-.108 17.166 0 16.727 0 17.545c0 2.307 2.993 4.177 6.684 4.177s6.684-1.87 6.684-4.177zM6.684 9.19l3.76 7.519h-7.52zm26.734 8.355c0-.845.07-.456-4.441-9.478a2.508 2.508 0 00-4.484 0c-4.549 9.1-4.441 8.66-4.441 9.478 0 2.307 2.993 4.177 6.684 4.177s6.684-1.87 6.684-4.177zm-10.442-.835l3.76-7.519 3.76 7.519zm4.6 6.684H18.38V8a4.181 4.181 0 002.42-2.987h6.768a.835.835 0 00.835-.835V2.506a.835.835 0 00-.835-.835h-7.535a4.14 4.14 0 00-6.646 0H5.848a.835.835 0 00-.835.835v1.671a.835.835 0 00.835.835h6.768A4.18 4.18 0 0015.039 8v15.393H5.848a.835.835 0 00-.835.835V25.9a.835.835 0 00.835.835h21.723a.835.835 0 00.835-.835v-1.671a.835.835 0 00-.835-.836z"/></svg>
