<svg xmlns="http://www.w3.org/2000/svg" width="12.219" height="12.219"><path d="M8.908 7.322c-.153-.076-.9-.441-1.039-.492s-.241-.076-.343.076-.393.491-.481.592-.178.107-.329.038a4.132 4.132 0 01-1.222-.756 4.619 4.619 0 01-.845-1.054c-.089-.153-.01-.237.066-.313s.153-.176.23-.266a1.291 1.291 0 00.155-.252.28.28 0 00-.013-.267c-.042-.076-.346-.828-.473-1.128s-.248-.26-.342-.26-.189-.008-.291-.008a.574.574 0 00-.406.183 1.7 1.7 0 00-.532 1.26 2.979 2.979 0 00.621 1.566 6.789 6.789 0 002.6 2.283c.364.153.647.244.868.32a2.106 2.106 0 00.957.062 1.567 1.567 0 001.026-.726 1.26 1.26 0 00.085-.72c-.038-.069-.137-.107-.29-.176m-2.77 3.789h-.008a5.093 5.093 0 01-2.574-.7l-.183-.109-1.909.5.512-1.864-.122-.191A5.049 5.049 0 019.72 2.482a4.983 4.983 0 011.48 3.559 5.056 5.056 0 01-5.058 5.033m4.3-9.318A6.182 6.182 0 006.132 0 6.053 6.053 0 00.863 9.082L0 12.219l3.225-.841a6.141 6.141 0 002.907.737 6.079 6.079 0 006.083-6.056 6 6 0 00-1.779-4.282"/></svg>
