<svg xmlns="http://www.w3.org/2000/svg" width="13.196" height="13.916"><path d="M11.708 1.355C11.363 1.037 9.966.023 6.852.009c0 0-3.671-.22-5.46 1.421A5.947 5.947 0 00.009 5.692c-.036 1.805-.084 5.193 3.179 6.112v1.4s-.022.568.353.682c.451.141.717-.291 1.15-.755.236-.255.563-.63.81-.916a12.628 12.628 0 004.144-.3 4.081 4.081 0 003.416-3.859c.429-3.495-.207-5.7-1.353-6.7zm.378 6.442a3.238 3.238 0 01-2.8 3.128 11.683 11.683 0 01-3.565.3s-1.413 1.7-1.853 2.147c-.144.144-.3.13-.3-.155l.011-2.329C.813 10.127.973 7.244 1.006 5.735a4.956 4.956 0 011.158-3.576C3.673.787 6.795.991 6.795.991c2.633.011 3.894.8 4.188 1.071.97.832 1.465 2.821 1.1 5.737zm-3.777-2.2a.176.176 0 11-.351.016.84.84 0 00-.885-.916.176.176 0 01.019-.351 1.182 1.182 0 011.216 1.256zm.552.307a2.03 2.03 0 00-2.06-2.155.176.176 0 01.024-.351 2.38 2.38 0 012.386 2.514.176.176 0 01-.351-.008zm1.277.364a.175.175 0 01-.351 0 3.2 3.2 0 00-3.283-3.427.175.175 0 010-.351 3.555 3.555 0 013.633 3.784zm-.307 2.666v.005c-.293.516-.842 1.087-1.408.9l-.005-.008A10.446 10.446 0 015.64 8.306a7.1 7.1 0 01-1.153-1.152 8.819 8.819 0 01-.837-1.266 8.12 8.12 0 01-.707-1.514c-.182-.565.386-1.114.9-1.408h.005a.5.5 0 01.649.106s.337.4.481.6.318.481.413.647a.567.567 0 01-.1.723l-.318.261a.478.478 0 00-.144.38 3.4 3.4 0 002.289 2.292.478.478 0 00.38-.144l.261-.326a.567.567 0 01.723-.1 7.041 7.041 0 011.245.894.485.485 0 01.1.641z"/></svg>
