<svg xmlns="http://www.w3.org/2000/svg" width="24.188" height="20.499"><g fill="#fff"><path d="M18.61 9.158A9.232 9.232 0 009.31 0 9.232 9.232 0 000 9.158a9.1 9.1 0 002.055 5.745.3.3 0 01.051.245A14.688 14.688 0 01.3 19.436a.791.791 0 00-.054.7.523.523 0 00.469.362h.013a7.623 7.623 0 005.691-2.507.176.176 0 01.19-.064 9.459 9.459 0 002.7.39 9.232 9.232 0 009.301-9.159zm-11.837 7.9a.79.79 0 00-.851.3 7.019 7.019 0 01-4.83 2.231 15.358 15.358 0 001.7-4.207 1.341 1.341 0 00-.24-1.114 7.988 7.988 0 01-1.841-5.11 8.448 8.448 0 018.6-8.271 8.277 8.277 0 110 16.542 8.892 8.892 0 01-2.532-.366z"/><path d="M20.888 17.093a5.894 5.894 0 003.3-5.118c0-2.943-2.474-5.457-5.882-5.979a.36.36 0 00-.4.323.377.377 0 00.3.431c3.056.468 5.274 2.665 5.274 5.224a5.145 5.145 0 01-2.91 4.438.965.965 0 00-.462 1.035 8.277 8.277 0 00.835 2.229 4.148 4.148 0 01-3.136-1.921.865.865 0 00-.757-.467h-.029a7.85 7.85 0 01-1.169-.087.36.36 0 00-.4.324.377.377 0 00.3.43 8.525 8.525 0 001.268.095h.029a.162.162 0 01.142.086c.96 1.788 3.166 2.245 4.069 2.358a.5.5 0 00.5-.257.583.583 0 000-.591 7.86 7.86 0 01-.954-2.358.184.184 0 01.082-.195zM3.792 7.76A1.324 1.324 0 105.02 9.08a1.278 1.278 0 00-1.228-1.32zm0 1.879a.56.56 0 11.519-.558.541.541 0 01-.519.558zM7.295 7.76a1.324 1.324 0 101.228 1.32 1.278 1.278 0 00-1.228-1.32zm0 1.879a.56.56 0 11.519-.558.541.541 0 01-.519.558zM10.8 7.76a1.324 1.324 0 101.228 1.32A1.278 1.278 0 0010.8 7.76zm0 1.879a.56.56 0 11.519-.558.541.541 0 01-.519.558zM14.301 7.76a1.324 1.324 0 101.228 1.32 1.278 1.278 0 00-1.228-1.32zm0 1.879a.56.56 0 11.519-.558.541.541 0 01-.519.558z"/></g></svg>
