<svg xmlns="http://www.w3.org/2000/svg" width="14.994" height="14.994"><path d="M14.16 10.412a9.5 9.5 0 01-2.974-.475.836.836 0 00-.845.2l-1.833 1.837a12.566 12.566 0 01-5.489-5.481l1.833-1.837a.836.836 0 00.2-.845A9.528 9.528 0 014.577.833.83.83 0 003.744 0H.833A.83.83 0 000 .833a14.159 14.159 0 0014.16 14.16.83.83 0 00.833-.833v-2.915a.83.83 0 00-.833-.833zm-.833-2.915h1.666a7.5 7.5 0 00-7.5-7.5v1.669a5.832 5.832 0 015.835 5.831zm-3.332 0h1.666a4.166 4.166 0 00-4.165-4.165v1.666a2.5 2.5 0 012.5 2.499z" fill="#ffc62b"/></svg>
