<svg xmlns="http://www.w3.org/2000/svg" width="22.472" height="23.409"><path d="M11.147 8.918h2.229V5.573h3.344V3.344h-3.344V0h-2.229v3.344H7.8v2.229h3.344zM6.688 18.95a2.229 2.229 0 102.229 2.229 2.226 2.226 0 00-2.229-2.229zm11.147 0a2.229 2.229 0 102.229 2.229 2.226 2.226 0 00-2.229-2.229zM6.878 15.327l.033-.134 1-1.817h8.3a2.219 2.219 0 001.951-1.148l4.3-7.814-1.94-1.07h-.011L19.3 5.573l-3.077 5.573H8.394l-.145-.3-2.5-5.273-1.056-2.229-1.048-2.229H0v2.229h2.229L6.242 11.8l-1.5 2.731a2.155 2.155 0 00-.279 1.07 2.236 2.236 0 002.229 2.229h13.373v-2.224H7.156a.283.283 0 01-.278-.279z"/></svg>
