<svg xmlns="http://www.w3.org/2000/svg" width="26.251" height="26.246"><path d="M13.126 0A13.115 13.115 0 003.008 21.473c0 .007.005.015.011.021a13.122 13.122 0 004.956 3.7l.065.028c.154.065.309.125.465.183l.185.069q.2.072.406.137c.087.028.174.056.262.082q.18.054.363.1c.107.029.214.056.322.081s.218.052.328.076.246.049.371.072c.1.018.2.038.3.054.138.022.277.04.416.058.09.011.179.024.269.034.158.017.316.028.476.039.074.005.147.013.222.017q.348.02.7.02c.237 0 .472-.007.7-.019.074 0 .148-.012.222-.017.159-.011.318-.023.476-.039.09-.01.179-.023.269-.034.139-.018.278-.035.416-.058.1-.016.2-.035.3-.054.124-.023.248-.046.371-.072s.219-.049.328-.076.215-.053.322-.081.242-.067.363-.1c.088-.026.175-.054.262-.082q.2-.066.406-.137l.185-.069c.156-.059.311-.119.465-.183l.065-.028a13.125 13.125 0 004.956-3.7c.005-.006.006-.015.01-.021A13.117 13.117 0 0013.126 0zm5.319 24.155l-.019.01c-.156.075-.315.146-.475.215l-.109.046q-.21.088-.424.168l-.179.065a11.41 11.41 0 01-.382.129l-.24.073-.343.1c-.1.026-.2.049-.293.073a7.59 7.59 0 01-.65.136c-.092.017-.184.035-.277.05-.128.02-.258.036-.387.052-.082.01-.163.023-.246.031-.147.016-.3.026-.445.036-.066 0-.132.012-.2.015q-.325.017-.651.017t-.651-.017c-.067 0-.132-.01-.2-.015-.149-.01-.3-.021-.445-.036-.083-.009-.164-.021-.246-.031-.129-.016-.259-.032-.387-.052-.093-.015-.185-.033-.277-.05-.114-.021-.228-.042-.341-.065s-.207-.047-.309-.071-.2-.047-.293-.073a7.94 7.94 0 01-.343-.1l-.24-.073q-.192-.062-.382-.129l-.179-.065q-.214-.08-.424-.168L8.3 24.38c-.16-.069-.319-.14-.476-.215l-.019-.01A12.31 12.31 0 013.838 21.1a9.656 9.656 0 016.32-6.622c.061.037.124.07.187.105l.11.062c.13.069.263.134.4.192.1.045.211.084.318.123l.063.023a5.585 5.585 0 003.784 0l.063-.023c.107-.039.214-.078.318-.123.135-.058.267-.123.4-.192l.11-.062c.063-.035.126-.068.188-.106a9.658 9.658 0 016.32 6.622 12.322 12.322 0 01-3.974 3.056zM8.313 9.624a4.813 4.813 0 117.431 4.032 4.635 4.635 0 01-.536.3l-.065.031a4.924 4.924 0 01-4.034 0l-.065-.031a4.6 4.6 0 01-.536-.3 4.808 4.808 0 01-2.195-4.032zM23.07 20.263a10.541 10.541 0 00-6.146-6.419 5.688 5.688 0 10-7.6 0 10.542 10.542 0 00-6.146 6.419 12.246 12.246 0 1122.195-7.14 12.177 12.177 0 01-2.303 7.14z" fill="#fff"/></svg>
