<svg xmlns="http://www.w3.org/2000/svg" width="24.835" height="19.868"><path d="M9.934 13.038c0-.628.052-.339-3.3-7.043a1.864 1.864 0 00-3.332 0C-.08 12.757 0 12.43 0 13.038c0 1.714 2.224 3.1 4.967 3.1s4.967-1.385 4.967-3.1zM4.967 6.83l2.794 5.588H2.173zm19.867 6.209c0-.628.052-.339-3.3-7.043a1.864 1.864 0 00-3.332 0c-3.381 6.762-3.3 6.435-3.3 7.043 0 1.714 2.224 3.1 4.967 3.1s4.967-1.39 4.967-3.1zm-7.76-.621l2.794-5.588 2.794 5.588zm3.415 4.967h-6.83V5.947a3.107 3.107 0 001.8-2.222h5.029a.621.621 0 00.621-.621V1.863a.621.621 0 00-.621-.621h-5.6a3.076 3.076 0 00-4.939 0h-5.6a.621.621 0 00-.621.621V3.1a.621.621 0 00.621.621h5.026a3.107 3.107 0 001.8 2.222v11.441H4.346a.621.621 0 00-.621.621v1.242a.621.621 0 00.621.621h16.143a.621.621 0 00.621-.621v-1.242a.621.621 0 00-.621-.621z"/></svg>
