<svg xmlns="http://www.w3.org/2000/svg" width="57.5" height="57.5"><path d="M28.75 0A28.75 28.75 0 1057.5 28.75 28.745 28.745 0 0028.75 0zm23.185 28.75a23.084 23.084 0 01-1.252 7.466H48.33a1.832 1.832 0 01-1.322-.556L43.3 31.88a1.382 1.382 0 01.012-1.936l1.449-1.449v-1.009a1.316 1.316 0 00-.383-.927l-1.09-1.09a1.316 1.316 0 00-.927-.383h-1.856a1.312 1.312 0 01-.927-2.237l1.09-1.09a1.316 1.316 0 01.927-.383H45.3a1.316 1.316 0 001.31-1.31v-1.089a1.316 1.316 0 00-1.31-1.31h-4.25a1.86 1.86 0 00-1.85 1.855v.522a1.86 1.86 0 01-1.264 1.762l-3.663 1.217a.922.922 0 00-.638.881v.255a.93.93 0 01-.927.927h-1.86a.93.93 0 01-.927-.927.93.93 0 00-.927-.927h-.359a.945.945 0 00-.835.51l-1.09 2.168a1.846 1.846 0 01-1.658 1.02H22.49a1.86 1.86 0 01-1.855-1.855v-2.938a1.862 1.862 0 01.545-1.31l2.33-2.33a2.868 2.868 0 00.835-2.029.933.933 0 01.638-.881l4.637-1.542a1.349 1.349 0 00.51-.313l3.107-3.107a1.312 1.312 0 00-.927-2.237h-2.4l-1.856 1.859v.927a.93.93 0 01-.927.927h-1.855a.93.93 0 01-.927-.927V8.856a.933.933 0 01.371-.742l3.35-2.516c.22-.012.441-.035.661-.035A23.214 23.214 0 0151.935 28.75zM15.082 16.357a1.316 1.316 0 01.383-.927l2.945-2.945a1.312 1.312 0 012.237.927v1.855a1.316 1.316 0 01-.383.927l-1.09 1.09a1.316 1.316 0 01-.927.383h-1.855a1.316 1.316 0 01-1.31-1.31zm14.839 35.52v-.823a1.86 1.86 0 00-1.855-1.855h-2.342a8.026 8.026 0 01-4.1-1.368l-2.574-1.936a5.265 5.265 0 01-2.11-4.22v-2.77a5.268 5.268 0 012.56-4.521l4.973-2.979a5.344 5.344 0 012.713-.754H30.8a5.288 5.288 0 013.431 1.264l5.008 4.3h2.121a3.7 3.7 0 012.62 1.09l2.006 2.006a2.124 2.124 0 001.5.614h1.553a23.144 23.144 0 01-19.118 11.952z" fill="#ffc62b"/></svg>
