<svg xmlns="http://www.w3.org/2000/svg" width="15.75" height="18"><path d="M0 16.313A1.688 1.688 0 001.688 18h12.375a1.688 1.688 0 001.688-1.687V6.75H0zm11.25-6.891A.423.423 0 0111.672 9h1.406a.423.423 0 01.422.422v1.406a.423.423 0 01-.422.422h-1.406a.423.423 0 01-.422-.422zm0 4.5a.423.423 0 01.422-.422h1.406a.423.423 0 01.422.422v1.406a.423.423 0 01-.422.422h-1.406a.423.423 0 01-.422-.422zm-4.5-4.5A.423.423 0 017.172 9h1.406A.423.423 0 019 9.422v1.406a.423.423 0 01-.422.422H7.172a.423.423 0 01-.422-.422zm0 4.5a.423.423 0 01.422-.422h1.406a.423.423 0 01.422.422v1.406a.423.423 0 01-.422.422H7.172a.423.423 0 01-.422-.422zm-4.5-4.5A.423.423 0 012.672 9h1.406a.423.423 0 01.422.422v1.406a.423.423 0 01-.422.422H2.672a.423.423 0 01-.422-.422zm0 4.5a.423.423 0 01.422-.422h1.406a.423.423 0 01.422.422v1.406a.423.423 0 01-.422.422H2.672a.423.423 0 01-.422-.422zM14.063 2.25h-1.688V.563A.564.564 0 0011.813 0h-1.125a.564.564 0 00-.563.563V2.25h-4.5V.563A.564.564 0 005.063 0H3.938a.564.564 0 00-.562.563V2.25H1.688A1.688 1.688 0 000 3.938v1.687h15.75V3.938a1.688 1.688 0 00-1.687-1.688z" fill="#3c3c3c"/></svg>
