<?xml version="1.0" encoding="UTF-8"?><!DOCTYPE svg PUBLIC "-//W3C//DTD SVG 1.1//EN" "http://www.w3.org/Graphics/SVG/1.1/DTD/svg11.dtd"><svg xmlns="http://www.w3.org/2000/svg" xmlns:xlink="http://www.w3.org/1999/xlink"><symbol id="icon-arrow-right"><path d="M8.238.165a.586.586 0 000 .826l2.728 2.732H.579a.584.584 0 000 1.167h10.378L8.225 7.622a.59.59 0 000 .826.581.581 0 00.821 0l3.7-3.724a.655.655 0 00.121-.184.557.557 0 00.045-.224.585.585 0 00-.166-.408L9.046.184a.572.572 0 00-.808-.019z"/></symbol><symbol id="icon-article-calendar"><path d="M0 16.313A1.688 1.688 0 001.688 18h12.375a1.688 1.688 0 001.688-1.687V6.75H0zm11.25-6.891A.423.423 0 0111.672 9h1.406a.423.423 0 01.422.422v1.406a.423.423 0 01-.422.422h-1.406a.423.423 0 01-.422-.422zm0 4.5a.423.423 0 01.422-.422h1.406a.423.423 0 01.422.422v1.406a.423.423 0 01-.422.422h-1.406a.423.423 0 01-.422-.422zm-4.5-4.5A.423.423 0 017.172 9h1.406A.423.423 0 019 9.422v1.406a.423.423 0 01-.422.422H7.172a.423.423 0 01-.422-.422zm0 4.5a.423.423 0 01.422-.422h1.406a.423.423 0 01.422.422v1.406a.423.423 0 01-.422.422H7.172a.423.423 0 01-.422-.422zm-4.5-4.5A.423.423 0 012.672 9h1.406a.423.423 0 01.422.422v1.406a.423.423 0 01-.422.422H2.672a.423.423 0 01-.422-.422zm0 4.5a.423.423 0 01.422-.422h1.406a.423.423 0 01.422.422v1.406a.423.423 0 01-.422.422H2.672a.423.423 0 01-.422-.422zM14.063 2.25h-1.688V.563A.564.564 0 0011.813 0h-1.125a.564.564 0 00-.563.563V2.25h-4.5V.563A.564.564 0 005.063 0H3.938a.564.564 0 00-.562.563V2.25H1.688A1.688 1.688 0 000 3.938v1.687h15.75V3.938a1.688 1.688 0 00-1.687-1.688z" fill="#3c3c3c"/></symbol><symbol id="icon-bag"><g fill="none" stroke="#fff" stroke-linecap="round" stroke-linejoin="round" stroke-width="3"><path d="M5.1 1.5L1.5 6.3v16.8a2.4 2.4 0 002.4 2.4h16.8a2.4 2.4 0 002.4-2.4V6.3l-3.6-4.8zM1.5 6.3h21.6M17.1 11.1a4.8 4.8 0 11-9.6 0"/></g></symbol><symbol id="icon-burger"><g fill="none" stroke="#fff" stroke-linecap="round" stroke-linejoin="round" stroke-width="2"><path d="M1 10h27M1 1h27M1 19h27"/></g></symbol><symbol id="icon-card-cart"><path d="M11.147 8.918h2.229V5.573h3.344V3.344h-3.344V0h-2.229v3.344H7.8v2.229h3.344zM6.688 18.95a2.229 2.229 0 102.229 2.229 2.226 2.226 0 00-2.229-2.229zm11.147 0a2.229 2.229 0 102.229 2.229 2.226 2.226 0 00-2.229-2.229zM6.878 15.327l.033-.134 1-1.817h8.3a2.219 2.219 0 001.951-1.148l4.3-7.814-1.94-1.07h-.011L19.3 5.573l-3.077 5.573H8.394l-.145-.3-2.5-5.273-1.056-2.229-1.048-2.229H0v2.229h2.229L6.242 11.8l-1.5 2.731a2.155 2.155 0 00-.279 1.07 2.236 2.236 0 002.229 2.229h13.373v-2.224H7.156a.283.283 0 01-.278-.279z"/></symbol><symbol id="icon-card-fav"><path d="M19.192 2.978a5.044 5.044 0 00-7.135 0l-.972.972-.972-.972a5.046 5.046 0 10-7.136 7.136l.972.972 7.135 7.135 7.135-7.135.972-.972a5.044 5.044 0 000-7.135z" fill="none" stroke-linecap="round" stroke-linejoin="round" stroke-width="3"/></symbol><symbol id="icon-card-scale"><path d="M9.934 13.038c0-.628.052-.339-3.3-7.043a1.864 1.864 0 00-3.332 0C-.08 12.757 0 12.43 0 13.038c0 1.714 2.224 3.1 4.967 3.1s4.967-1.385 4.967-3.1zM4.967 6.83l2.794 5.588H2.173zm19.867 6.209c0-.628.052-.339-3.3-7.043a1.864 1.864 0 00-3.332 0c-3.381 6.762-3.3 6.435-3.3 7.043 0 1.714 2.224 3.1 4.967 3.1s4.967-1.39 4.967-3.1zm-7.76-.621l2.794-5.588 2.794 5.588zm3.415 4.967h-6.83V5.947a3.107 3.107 0 001.8-2.222h5.029a.621.621 0 00.621-.621V1.863a.621.621 0 00-.621-.621h-5.6a3.076 3.076 0 00-4.939 0h-5.6a.621.621 0 00-.621.621V3.1a.621.621 0 00.621.621h5.026a3.107 3.107 0 001.8 2.222v11.441H4.346a.621.621 0 00-.621.621v1.242a.621.621 0 00.621.621h16.143a.621.621 0 00.621-.621v-1.242a.621.621 0 00-.621-.621z"/></symbol><symbol id="icon-contacts-address"><path d="M24.758 0A24.725 24.725 0 000 24.758c0 16.505 24.758 41.263 24.758 41.263s24.758-24.758 24.758-41.263A24.725 24.725 0 0024.758 0zm0 8.253A16.505 16.505 0 118.253 24.758 16.5 16.5 0 0124.758 8.253z" fill="#ffc62b"/></symbol><symbol id="icon-contacts-global"><path d="M28.75 0A28.75 28.75 0 1057.5 28.75 28.745 28.745 0 0028.75 0zm23.185 28.75a23.084 23.084 0 01-1.252 7.466H48.33a1.832 1.832 0 01-1.322-.556L43.3 31.88a1.382 1.382 0 01.012-1.936l1.449-1.449v-1.009a1.316 1.316 0 00-.383-.927l-1.09-1.09a1.316 1.316 0 00-.927-.383h-1.856a1.312 1.312 0 01-.927-2.237l1.09-1.09a1.316 1.316 0 01.927-.383H45.3a1.316 1.316 0 001.31-1.31v-1.089a1.316 1.316 0 00-1.31-1.31h-4.25a1.86 1.86 0 00-1.85 1.855v.522a1.86 1.86 0 01-1.264 1.762l-3.663 1.217a.922.922 0 00-.638.881v.255a.93.93 0 01-.927.927h-1.86a.93.93 0 01-.927-.927.93.93 0 00-.927-.927h-.359a.945.945 0 00-.835.51l-1.09 2.168a1.846 1.846 0 01-1.658 1.02H22.49a1.86 1.86 0 01-1.855-1.855v-2.938a1.862 1.862 0 01.545-1.31l2.33-2.33a2.868 2.868 0 00.835-2.029.933.933 0 01.638-.881l4.637-1.542a1.349 1.349 0 00.51-.313l3.107-3.107a1.312 1.312 0 00-.927-2.237h-2.4l-1.856 1.859v.927a.93.93 0 01-.927.927h-1.855a.93.93 0 01-.927-.927V8.856a.933.933 0 01.371-.742l3.35-2.516c.22-.012.441-.035.661-.035A23.214 23.214 0 0151.935 28.75zM15.082 16.357a1.316 1.316 0 01.383-.927l2.945-2.945a1.312 1.312 0 012.237.927v1.855a1.316 1.316 0 01-.383.927l-1.09 1.09a1.316 1.316 0 01-.927.383h-1.855a1.316 1.316 0 01-1.31-1.31zm14.839 35.52v-.823a1.86 1.86 0 00-1.855-1.855h-2.342a8.026 8.026 0 01-4.1-1.368l-2.574-1.936a5.265 5.265 0 01-2.11-4.22v-2.77a5.268 5.268 0 012.56-4.521l4.973-2.979a5.344 5.344 0 012.713-.754H30.8a5.288 5.288 0 013.431 1.264l5.008 4.3h2.121a3.7 3.7 0 012.62 1.09l2.006 2.006a2.124 2.124 0 001.5.614h1.553a23.144 23.144 0 01-19.118 11.952z" fill="#ffc62b"/></symbol><symbol id="icon-contacts-phone"><path d="M55.411 2.764L43.732.069a2.713 2.713 0 00-3.088 1.561l-5.39 12.578a2.688 2.688 0 00.775 3.144l6.805 5.57a41.621 41.621 0 01-19.9 19.9l-5.57-6.805a2.692 2.692 0 00-3.144-.775l-12.579 5.39a2.727 2.727 0 00-1.572 3.1l2.7 11.679a2.694 2.694 0 002.623 2.09A52.1 52.1 0 0057.501 5.392a2.692 2.692 0 00-2.09-2.628z" fill="#ffc62b"/></symbol><symbol id="icon-drop-down"><path d="M1.321 0l4.3 4.291L9.922 0l1.321 1.321-5.621 5.621L0 1.321z"/></symbol><symbol id="icon-dropdown"><path d="M4.761 3.801l3.6-3.6a.68.68 0 01.961.964L5.244 5.246a.679.679 0 01-.938.02L.2 1.166a.68.68 0 01.961-.964z"/></symbol><symbol id="icon-facebook"><path d="M5.353 6.016l.3-1.936H3.791V2.824a.968.968 0 011.093-1.045h.844V.131A10.3 10.3 0 004.23 0a2.363 2.363 0 00-2.529 2.605v1.476h-1.7v1.935h1.7V10.7h2.09V6.016z"/></symbol><symbol id="icon-favourite"><path d="M23.808 1.989a6.788 6.788 0 00-9.6 0l-1.31 1.309-1.308-1.309a6.789 6.789 0 10-9.6 9.6l1.307 1.314 9.6 9.6 9.6-9.6 1.308-1.308a6.788 6.788 0 000-9.6z"/></symbol><symbol id="icon-fixed-nav-bag"><g fill="none" stroke="#fff" stroke-linecap="round" stroke-linejoin="round"><path d="M3.739.5L.5 4.819v15.114a2.159 2.159 0 002.159 2.159h15.115a2.159 2.159 0 002.159-2.159V4.819L16.695.5zM.5 4.819h19.433M14.535 9.137a4.319 4.319 0 11-8.637 0"/></g></symbol><symbol id="icon-fixed-nav-chat"><g fill="#fff"><path d="M18.61 9.158A9.232 9.232 0 009.31 0 9.232 9.232 0 000 9.158a9.1 9.1 0 002.055 5.745.3.3 0 01.051.245A14.688 14.688 0 01.3 19.436a.791.791 0 00-.054.7.523.523 0 00.469.362h.013a7.623 7.623 0 005.691-2.507.176.176 0 01.19-.064 9.459 9.459 0 002.7.39 9.232 9.232 0 009.301-9.159zm-11.837 7.9a.79.79 0 00-.851.3 7.019 7.019 0 01-4.83 2.231 15.358 15.358 0 001.7-4.207 1.341 1.341 0 00-.24-1.114 7.988 7.988 0 01-1.841-5.11 8.448 8.448 0 018.6-8.271 8.277 8.277 0 110 16.542 8.892 8.892 0 01-2.532-.366z"/><path d="M20.888 17.093a5.894 5.894 0 003.3-5.118c0-2.943-2.474-5.457-5.882-5.979a.36.36 0 00-.4.323.377.377 0 00.3.431c3.056.468 5.274 2.665 5.274 5.224a5.145 5.145 0 01-2.91 4.438.965.965 0 00-.462 1.035 8.277 8.277 0 00.835 2.229 4.148 4.148 0 01-3.136-1.921.865.865 0 00-.757-.467h-.029a7.85 7.85 0 01-1.169-.087.36.36 0 00-.4.324.377.377 0 00.3.43 8.525 8.525 0 001.268.095h.029a.162.162 0 01.142.086c.96 1.788 3.166 2.245 4.069 2.358a.5.5 0 00.5-.257.583.583 0 000-.591 7.86 7.86 0 01-.954-2.358.184.184 0 01.082-.195zM3.792 7.76A1.324 1.324 0 105.02 9.08a1.278 1.278 0 00-1.228-1.32zm0 1.879a.56.56 0 11.519-.558.541.541 0 01-.519.558zM7.295 7.76a1.324 1.324 0 101.228 1.32 1.278 1.278 0 00-1.228-1.32zm0 1.879a.56.56 0 11.519-.558.541.541 0 01-.519.558zM10.8 7.76a1.324 1.324 0 101.228 1.32A1.278 1.278 0 0010.8 7.76zm0 1.879a.56.56 0 11.519-.558.541.541 0 01-.519.558zM14.301 7.76a1.324 1.324 0 101.228 1.32 1.278 1.278 0 00-1.228-1.32zm0 1.879a.56.56 0 11.519-.558.541.541 0 01-.519.558z"/></g></symbol><symbol id="icon-fixed-nav-home"><g fill="none" stroke="#fff" stroke-linecap="round" stroke-linejoin="round"><path d="M.5 8.539L10.836.5l10.336 8.039v12.634a2.3 2.3 0 01-2.3 2.3H2.8a2.3 2.3 0 01-2.3-2.3z"/><path d="M7.391 23.47V11.985h6.891V23.47"/></g></symbol><symbol id="icon-fixed-nav-search"><g fill="none" stroke="#fff" stroke-linecap="round" stroke-linejoin="round"><path d="M18.576 9.538A9.038 9.038 0 119.538.5a9.038 9.038 0 019.038 9.038zM20.836 20.836l-4.915-4.915"/></g></symbol><symbol id="icon-fixed-nav-user"><path d="M13.126 0A13.115 13.115 0 003.008 21.473c0 .007.005.015.011.021a13.122 13.122 0 004.956 3.7l.065.028c.154.065.309.125.465.183l.185.069q.2.072.406.137c.087.028.174.056.262.082q.18.054.363.1c.107.029.214.056.322.081s.218.052.328.076.246.049.371.072c.1.018.2.038.3.054.138.022.277.04.416.058.09.011.179.024.269.034.158.017.316.028.476.039.074.005.147.013.222.017q.348.02.7.02c.237 0 .472-.007.7-.019.074 0 .148-.012.222-.017.159-.011.318-.023.476-.039.09-.01.179-.023.269-.034.139-.018.278-.035.416-.058.1-.016.2-.035.3-.054.124-.023.248-.046.371-.072s.219-.049.328-.076.215-.053.322-.081.242-.067.363-.1c.088-.026.175-.054.262-.082q.2-.066.406-.137l.185-.069c.156-.059.311-.119.465-.183l.065-.028a13.125 13.125 0 004.956-3.7c.005-.006.006-.015.01-.021A13.117 13.117 0 0013.126 0zm5.319 24.155l-.019.01c-.156.075-.315.146-.475.215l-.109.046q-.21.088-.424.168l-.179.065a11.41 11.41 0 01-.382.129l-.24.073-.343.1c-.1.026-.2.049-.293.073a7.59 7.59 0 01-.65.136c-.092.017-.184.035-.277.05-.128.02-.258.036-.387.052-.082.01-.163.023-.246.031-.147.016-.3.026-.445.036-.066 0-.132.012-.2.015q-.325.017-.651.017t-.651-.017c-.067 0-.132-.01-.2-.015-.149-.01-.3-.021-.445-.036-.083-.009-.164-.021-.246-.031-.129-.016-.259-.032-.387-.052-.093-.015-.185-.033-.277-.05-.114-.021-.228-.042-.341-.065s-.207-.047-.309-.071-.2-.047-.293-.073a7.94 7.94 0 01-.343-.1l-.24-.073q-.192-.062-.382-.129l-.179-.065q-.214-.08-.424-.168L8.3 24.38c-.16-.069-.319-.14-.476-.215l-.019-.01A12.31 12.31 0 013.838 21.1a9.656 9.656 0 016.32-6.622c.061.037.124.07.187.105l.11.062c.13.069.263.134.4.192.1.045.211.084.318.123l.063.023a5.585 5.585 0 003.784 0l.063-.023c.107-.039.214-.078.318-.123.135-.058.267-.123.4-.192l.11-.062c.063-.035.126-.068.188-.106a9.658 9.658 0 016.32 6.622 12.322 12.322 0 01-3.974 3.056zM8.313 9.624a4.813 4.813 0 117.431 4.032 4.635 4.635 0 01-.536.3l-.065.031a4.924 4.924 0 01-4.034 0l-.065-.031a4.6 4.6 0 01-.536-.3 4.808 4.808 0 01-2.195-4.032zM23.07 20.263a10.541 10.541 0 00-6.146-6.419 5.688 5.688 0 10-7.6 0 10.542 10.542 0 00-6.146 6.419 12.246 12.246 0 1122.195-7.14 12.177 12.177 0 01-2.303 7.14z" fill="#fff"/></symbol><symbol id="icon-instagram"><path d="M5.778 2.814A2.962 2.962 0 108.74 5.775a2.957 2.957 0 00-2.962-2.961zm0 4.887a1.925 1.925 0 111.927-1.926 1.929 1.929 0 01-1.927 1.926zm3.774-5.008a.691.691 0 11-.691-.691.689.689 0 01.691.691zm1.962.7a3.419 3.419 0 00-.933-2.42A3.441 3.441 0 008.161.04c-.954-.054-3.812-.054-4.766 0a3.436 3.436 0 00-2.42.931 3.43 3.43 0 00-.933 2.42c-.054.954-.054 3.812 0 4.766a3.419 3.419 0 00.933 2.42 3.445 3.445 0 002.42.933c.954.054 3.812.054 4.766 0a3.419 3.419 0 002.42-.933 3.441 3.441 0 00.933-2.42c.054-.954.054-3.81 0-4.763zM10.282 9.18a1.949 1.949 0 01-1.1 1.1 12.73 12.73 0 01-3.4.232 12.83 12.83 0 01-3.4-.232 1.949 1.949 0 01-1.1-1.1 12.731 12.731 0 01-.232-3.405 12.83 12.83 0 01.225-3.405 1.949 1.949 0 011.1-1.1 12.73 12.73 0 013.4-.232 12.83 12.83 0 013.4.232 1.949 1.949 0 011.1 1.1 12.731 12.731 0 01.232 3.405 12.724 12.724 0 01-.226 3.406z"/></symbol><symbol id="icon-mail-footer-list"><path d="M17.333 0H1.926A1.923 1.923 0 00.01 1.926L0 13.481a1.932 1.932 0 001.926 1.926h15.407a1.932 1.932 0 001.926-1.926V1.926A1.932 1.932 0 0017.333 0zm0 13.481H1.926V3.852l7.7 4.815 7.7-4.815zm-7.7-6.741l-7.7-4.815h15.4z" fill="#919191"/></symbol><symbol id="icon-phone-footer-list"><path d="M18.251 13.589v2.531a1.667 1.667 0 01-.562 1.25 1.765 1.765 0 01-1.329.437 17.475 17.475 0 01-7.485-2.59 16.691 16.691 0 01-5.2-5.063 16.408 16.408 0 01-2.667-7.315 1.659 1.659 0 01.446-1.29A1.757 1.757 0 012.733 1h2.6a1.72 1.72 0 011.738 1.451 10.593 10.593 0 00.607 2.371 1.654 1.654 0 01-.39 1.78l-1.1 1.072a13.7 13.7 0 005.2 5.063l1.1-1.072a1.77 1.77 0 011.83-.38 11.392 11.392 0 002.437.591 1.7 1.7 0 011.492 1.713z" fill="none" stroke="#919191" stroke-linecap="round" stroke-linejoin="round" stroke-width="2"/></symbol><symbol id="icon-phone"><path d="M14.16 10.412a9.5 9.5 0 01-2.974-.475.836.836 0 00-.845.2l-1.833 1.837a12.566 12.566 0 01-5.489-5.481l1.833-1.837a.836.836 0 00.2-.845A9.528 9.528 0 014.577.833.83.83 0 003.744 0H.833A.83.83 0 000 .833a14.159 14.159 0 0014.16 14.16.83.83 0 00.833-.833v-2.915a.83.83 0 00-.833-.833zm-.833-2.915h1.666a7.5 7.5 0 00-7.5-7.5v1.669a5.832 5.832 0 015.835 5.831zm-3.332 0h1.666a4.166 4.166 0 00-4.165-4.165v1.666a2.5 2.5 0 012.5 2.499z" fill="#ffc62b"/></symbol><symbol id="icon-pin"><path d="M4.793 0A4.793 4.793 0 000 4.793c0 4.793 4.793 10.545 4.793 10.545S9.586 9.586 9.586 4.793A4.793 4.793 0 004.793 0zm0 7.729a2.936 2.936 0 112.936-2.936 2.936 2.936 0 01-2.936 2.936zM2.936 4.793A1.857 1.857 0 114.793 6.65a1.857 1.857 0 01-1.857-1.857z"/></symbol><symbol id="icon-product-bottom-cart"><path d="M11.147 8.918h2.229V5.573h3.344V3.344h-3.344V0h-2.229v3.344H7.8v2.229h3.344zM6.688 18.95a2.229 2.229 0 102.229 2.229 2.226 2.226 0 00-2.229-2.229zm11.147 0a2.229 2.229 0 102.229 2.229 2.226 2.226 0 00-2.229-2.229zM6.878 15.327l.033-.134 1-1.817h8.3a2.219 2.219 0 001.951-1.148l4.3-7.814-1.94-1.07h-.011L19.3 5.573l-3.077 5.573H8.394l-.145-.3-2.5-5.273-1.056-2.229-1.048-2.229H0v2.229h2.229L6.242 11.8l-1.5 2.731a2.155 2.155 0 00-.279 1.07 2.236 2.236 0 002.229 2.229h13.373v-2.224H7.156a.283.283 0 01-.278-.279z"/></symbol><symbol id="icon-product-bottom-tel"><path d="M18.123 6.397a6.617 6.617 0 015.227 5.227m-5.227-10.52a11.91 11.91 0 0110.52 10.507m-1.323 10.56v3.97a2.647 2.647 0 01-2.887 2.648 26.189 26.189 0 01-11.421-4.063 25.805 25.805 0 01-7.94-7.94 26.189 26.189 0 01-4.06-11.474 2.647 2.647 0 012.633-2.885h3.97a2.647 2.647 0 012.647 2.277 16.992 16.992 0 00.926 3.719 2.647 2.647 0 01-.6 2.792l-1.681 1.681a21.174 21.174 0 007.94 7.94l1.686-1.681a2.647 2.647 0 012.792-.6 16.992 16.992 0 003.719.926 2.647 2.647 0 012.276 2.691z" fill="none" stroke="#000" stroke-linecap="round" stroke-linejoin="round" stroke-width="2"/></symbol><symbol id="icon-product-delivery" viewBox="0 0 25 20.818">
  <g transform="translate(-0.5 -3.5)">
    <path d="M1.5,4.5H17.182V18.091H1.5Z" fill="none" stroke="#fff" stroke-linecap="round" stroke-linejoin="round" stroke-width="2"/>
    <path d="M24,12h4.182l3.136,3.136v5.227H24Z" transform="translate(-6.818 -2.273)" fill="none" stroke="#fff" stroke-linecap="round" stroke-linejoin="round" stroke-width="2"/>
    <path d="M9.727,26.614A2.614,2.614,0,1,1,7.114,24a2.614,2.614,0,0,1,2.614,2.614Z" transform="translate(-0.909 -5.909)" fill="none" stroke="#fff" stroke-linecap="round" stroke-linejoin="round" stroke-width="2"/>
    <path d="M29.227,26.614A2.614,2.614,0,1,1,26.614,24a2.614,2.614,0,0,1,2.614,2.614Z" transform="translate(-6.818 -5.909)" fill="none" stroke="#fff" stroke-linecap="round" stroke-linejoin="round" stroke-width="2"/>
  </g>
</symbol><symbol id="icon-reviews-arrow"><path d="M10.25.206a.73.73 0 00-.006 1.027l3.394 3.4H.725a.726.726 0 000 1.451h12.908l-3.394 3.4a.735.735 0 00.006 1.027.723.723 0 001.022-.006l4.6-4.634a.815.815 0 00.151-.229.693.693 0 00.056-.279.728.728 0 00-.207-.508l-4.6-4.634A.711.711 0 0010.25.206z" fill="#ffc62b"/></symbol><symbol id="icon-scale"><path d="M13.368 17.545c0-.845.07-.456-4.441-9.478a2.508 2.508 0 00-4.484 0C-.108 17.166 0 16.727 0 17.545c0 2.307 2.993 4.177 6.684 4.177s6.684-1.87 6.684-4.177zM6.684 9.19l3.76 7.519h-7.52zm26.734 8.355c0-.845.07-.456-4.441-9.478a2.508 2.508 0 00-4.484 0c-4.549 9.1-4.441 8.66-4.441 9.478 0 2.307 2.993 4.177 6.684 4.177s6.684-1.87 6.684-4.177zm-10.442-.835l3.76-7.519 3.76 7.519zm4.6 6.684H18.38V8a4.181 4.181 0 002.42-2.987h6.768a.835.835 0 00.835-.835V2.506a.835.835 0 00-.835-.835h-7.535a4.14 4.14 0 00-6.646 0H5.848a.835.835 0 00-.835.835v1.671a.835.835 0 00.835.835h6.768A4.18 4.18 0 0015.039 8v15.393H5.848a.835.835 0 00-.835.835V25.9a.835.835 0 00.835.835h21.723a.835.835 0 00.835-.835v-1.671a.835.835 0 00-.835-.836z"/></symbol><symbol id="icon-search"><path d="M26.684 25.052l-7.509-7.58a10.7 10.7 0 10-1.624 1.645l7.46 7.53a1.156 1.156 0 001.631.042 1.163 1.163 0 00.042-1.637zm-15.919-5.845a8.45 8.45 0 115.977-2.475 8.4 8.4 0 01-5.977 2.475z"/></symbol><symbol id="icon-slider-next-arrow" viewBox="0 0 13.503 23.619">
  <path d="M20.683,18,11.746,9.07a1.688,1.688,0,0,1,2.391-2.384L24.262,16.8a1.685,1.685,0,0,1,.049,2.327L14.144,29.32a1.688,1.688,0,0,1-2.391-2.384Z" transform="translate(-11.251 -6.194)" fill="#fff"/>
</symbol><symbol id="icon-slider-prev-arrow" viewBox="0 0 13.503 23.619">
  <path d="M15.321,18l8.937-8.93a1.688,1.688,0,0,0-2.391-2.384L11.742,16.8a1.685,1.685,0,0,0-.049,2.327L21.86,29.32a1.688,1.688,0,0,0,2.391-2.384Z" transform="translate(-11.251 -6.194)" fill="#fff"/>
</symbol><symbol id="icon-tabsswiper-next"><path d="M9.432 11.806L.495 2.876A1.688 1.688 0 012.886.492l10.125 10.114a1.685 1.685 0 01.049 2.327L2.893 23.126a1.688 1.688 0 01-2.391-2.384z" fill="#ffc62b"/></symbol><symbol id="icon-tabsswiper-prev"><path d="M4.07 11.806l8.937-8.93A1.688 1.688 0 0010.616.492L.491 10.606a1.685 1.685 0 00-.049 2.327l10.167 10.193A1.688 1.688 0 0013 20.742z" fill="#ffc62b"/></symbol><symbol id="icon-telegram"><path d="M11.299.865l-1.71 8.063c-.129.569-.465.711-.943.443l-2.6-1.92-1.264 1.208a.654.654 0 01-.524.255l.187-2.653 4.829-4.362c.21-.187-.046-.291-.326-.1L2.979 5.554.409 4.75c-.559-.175-.569-.559.116-.827L10.575.051c.465-.175.873.1.721.814z"/></symbol><symbol id="icon-user"><g fill="none" stroke="#fff" stroke-linecap="round" stroke-linejoin="round"><path d="M11.061 12.381v-1.32a2.64 2.64 0 00-2.64-2.64H3.14a2.64 2.64 0 00-2.64 2.64v1.32M8.42 3.14A2.64 2.64 0 115.78.5a2.64 2.64 0 012.64 2.64z"/></g></symbol><symbol id="icon-viber"><path d="M11.708 1.355C11.363 1.037 9.966.023 6.852.009c0 0-3.671-.22-5.46 1.421A5.947 5.947 0 00.009 5.692c-.036 1.805-.084 5.193 3.179 6.112v1.4s-.022.568.353.682c.451.141.717-.291 1.15-.755.236-.255.563-.63.81-.916a12.628 12.628 0 004.144-.3 4.081 4.081 0 003.416-3.859c.429-3.495-.207-5.7-1.353-6.7zm.378 6.442a3.238 3.238 0 01-2.8 3.128 11.683 11.683 0 01-3.565.3s-1.413 1.7-1.853 2.147c-.144.144-.3.13-.3-.155l.011-2.329C.813 10.127.973 7.244 1.006 5.735a4.956 4.956 0 011.158-3.576C3.673.787 6.795.991 6.795.991c2.633.011 3.894.8 4.188 1.071.97.832 1.465 2.821 1.1 5.737zm-3.777-2.2a.176.176 0 11-.351.016.84.84 0 00-.885-.916.176.176 0 01.019-.351 1.182 1.182 0 011.216 1.256zm.552.307a2.03 2.03 0 00-2.06-2.155.176.176 0 01.024-.351 2.38 2.38 0 012.386 2.514.176.176 0 01-.351-.008zm1.277.364a.175.175 0 01-.351 0 3.2 3.2 0 00-3.283-3.427.175.175 0 010-.351 3.555 3.555 0 013.633 3.784zm-.307 2.666v.005c-.293.516-.842 1.087-1.408.9l-.005-.008A10.446 10.446 0 015.64 8.306a7.1 7.1 0 01-1.153-1.152 8.819 8.819 0 01-.837-1.266 8.12 8.12 0 01-.707-1.514c-.182-.565.386-1.114.9-1.408h.005a.5.5 0 01.649.106s.337.4.481.6.318.481.413.647a.567.567 0 01-.1.723l-.318.261a.478.478 0 00-.144.38 3.4 3.4 0 002.289 2.292.478.478 0 00.38-.144l.261-.326a.567.567 0 01.723-.1 7.041 7.041 0 011.245.894.485.485 0 01.1.641z"/></symbol><symbol id="icon-whatsapp"><path d="M8.908 7.322c-.153-.076-.9-.441-1.039-.492s-.241-.076-.343.076-.393.491-.481.592-.178.107-.329.038a4.132 4.132 0 01-1.222-.756 4.619 4.619 0 01-.845-1.054c-.089-.153-.01-.237.066-.313s.153-.176.23-.266a1.291 1.291 0 00.155-.252.28.28 0 00-.013-.267c-.042-.076-.346-.828-.473-1.128s-.248-.26-.342-.26-.189-.008-.291-.008a.574.574 0 00-.406.183 1.7 1.7 0 00-.532 1.26 2.979 2.979 0 00.621 1.566 6.789 6.789 0 002.6 2.283c.364.153.647.244.868.32a2.106 2.106 0 00.957.062 1.567 1.567 0 001.026-.726 1.26 1.26 0 00.085-.72c-.038-.069-.137-.107-.29-.176m-2.77 3.789h-.008a5.093 5.093 0 01-2.574-.7l-.183-.109-1.909.5.512-1.864-.122-.191A5.049 5.049 0 019.72 2.482a4.983 4.983 0 011.48 3.559 5.056 5.056 0 01-5.058 5.033m4.3-9.318A6.182 6.182 0 006.132 0 6.053 6.053 0 00.863 9.082L0 12.219l3.225-.841a6.141 6.141 0 002.907.737 6.079 6.079 0 006.083-6.056 6 6 0 00-1.779-4.282"/></symbol></svg>